uphill_walking_calibrated_grf.mot																																				
version=1																																				
nRows=60																																				
nColumns=37																																				
inDegrees=yes																																				
endheader																																				
time	ground_force1_vx	ground_force1_vy	ground_force1_vz	ground_force1_px	ground_force1_py	ground_force1_pz	ground_torque1_x	ground_torque1_y	ground_torque1_z	ground_force2_vx	ground_force2_vy	ground_force2_vz	ground_force2_px	ground_force2_py	ground_force2_pz	ground_torque2_x	ground_torque2_y	ground_torque2_z	femur_assistance_force_vx	femur_assistance_force_vy	femur_assistance_force_vz	femur_assistance_force_px	femur_assistance_force_py	femur_assistance_force_pz	femur_assistance_torque_x	femur_assistance_torque_y	femur_assistance_torque_z	tibia_assistance_force_vx	tibia_assistance_force_vy	tibia_assistance_force_vz	tibia_assistance_force_px	tibia_assistance_force_py	tibia_assistance_force_pz	tibia_assistance_torque_x	tibia_assistance_torque_y	tibia_assistance_torque_z
26.99	0	0	0	0.889	0	-0.840175	0	0	0	116.131905	380.382782	-34.981926	0.705544	0	-0.484136	0.000011	3.584183	0.000018	17.58885297	125.7523646	0	0	-0.2	0	0	0	0	17.58885297	-125.7523646	0	0	-0.2	0	0	0	0
26.991	0	0	0	0.889	0	-0.840175	0	0	0	114.148262	377.025848	-34.981926	0.705674	0	-0.483752	0.000021	3.921542	-0.000001	17.31632058	125.9868827	0	0	-0.2	0	0	0	0	17.31632058	-125.9868827	0	0	-0.2	0	0	0	0
26.992	0	0	0	0.889	0	-0.840175	0	0	0	112.546089	372.753387	-35.973747	0.705248	0	-0.484384	0.000015	3.417898	0.00001	17.04277221	126.2208147	0	0	-0.2	0	0	0	0	17.04277221	-126.2208147	0	0	-0.2	0	0	0	0
26.993	0	0	0	0.889	0	-0.840175	0	0	0	111.630562	369.243866	-37.95739	0.70567	0	-0.485021	0.000009	3.130059	-0.000004	16.7682091	126.4541569	0	0	-0.2	0	0	0	0	16.7682091	-126.4541569	0	0	-0.2	0	0	0	0
26.994	0	0	0	0.889	0	-0.840175	0	0	0	111.325386	366.344696	-40.017326	0.70659	0	-0.485361	0.00002	3.021713	0.000022	16.50323537	126.6855253	0	0	-0.2	0	0	0	0	16.50323537	-126.6855253	0	0	-0.2	0	0	0	0
26.995	0	0	0	0.889	0	-0.840175	0	0	0	111.172798	363.598114	-40.85656	0.705884	0	-0.484159	0.000006	3.305256	0.00002	16.24482119	126.9153784	0	0	-0.2	0	0	0	0	16.24482119	-126.9153784	0	0	-0.2	0	0	0	0
26.996	0	0	0	0.889	0	-0.840175	0	0	0	110.638741	360.698944	-41.161736	0.703774	0	-0.483312	0.000006	4.274326	0.000034	15.98546196	127.1447083	0	0	-0.2	0	0	0	0	15.98546196	-127.1447083	0	0	-0.2	0	0	0	0
26.997	0	0	0	0.889	0	-0.840175	0	0	0	110.333565	357.952362	-41.619499	0.702353	0	-0.482588	0.000008	4.703802	0.000011	15.72515874	127.3735118	0	0	-0.2	0	0	0	0	15.72515874	-127.3735118	0	0	-0.2	0	0	0	0
26.998	0	0	0	0.889	0	-0.840175	0	0	0	110.409859	354.595428	-42.306145	0.703494	0	-0.483714	0.000013	4.218702	0.000022	15.4639126	127.6017859	0	0	-0.2	0	0	0	0	15.4639126	-127.6017859	0	0	-0.2	0	0	0	0
26.999	0	0	0	0.889	0	-0.840175	0	0	0	111.096504	352.001434	-43.984612	0.702436	0	-0.484504	0.000011	3.162997	0.000016	15.20172458	127.8295275	0	0	-0.2	0	0	0	0	15.20172458	-127.8295275	0	0	-0.2	0	0	0	0
27	0	0	0	0.889	0	-0.840175	0	0	0	111.78315	349.560028	-45.815666	0.705247	0	-0.485443	0.000008	2.248194	0.000019	14.93859579	128.0567336	0	0	-0.2	0	0	0	0	14.93859579	-128.0567336	0	0	-0.2	0	0	0	0
27.001	0	0	0	0.889	0	-0.840175	0	0	0	111.935738	347.576385	-47.036369	0.705058	0	-0.485053	0.000008	1.421851	0.000009	14.67212049	128.262361	0	0	-0.2	0	0	0	0	14.67212049	-128.262361	0	0	-0.2	0	0	0	0
27.002	0	0	0	0.889	0	-0.840175	0	0	0	112.012032	345.287567	-47.799309	0.7016	0	-0.483849	0.000009	0.854736	0.000017	14.40450567	128.4648054	0	0	-0.2	0	0	0	0	14.40450567	-128.4648054	0	0	-0.2	0	0	0	0
27.003	0	0	0	0.889	0	-0.840175	0	0	0	111.554268	341.778046	-48.257072	0.698804	0	-0.483996	0.00001	-0.157714	0.000007	14.1360592	128.6666935	0	0	-0.2	0	0	0	0	14.1360592	-128.6666935	0	0	-0.2	0	0	0	0
27.004	0	0	0	0.889	0	-0.840175	0	0	0	111.325386	338.268524	-48.028191	0.694867	0	-0.484687	0.000013	-1.8767	0.000002	13.89258689	128.8652431	0	0	-0.2	0	0	0	0	13.89258689	-128.8652431	0	0	-0.2	0	0	0	0
27.005	0	0	0	0.889	0	-0.840175	0	0	0	111.554268	334.453827	-47.570427	0.693303	0	-0.486018	0.000011	-2.955841	0.000014	13.66516999	129.0615557	0	0	-0.2	0	0	0	0	13.66516999	-129.0615557	0	0	-0.2	0	0	0	0
27.006	0	0	0	0.889	0	-0.840175	0	0	0	111.325386	331.707245	-47.188957	0.692787	0	-0.485994	0.000016	-3.557997	0.000029	13.43705572	129.2574689	0	0	-0.2	0	0	0	0	13.43705572	-129.2574689	0	0	-0.2	0	0	0	0
27.007	0	0	0	0.889	0	-0.840175	0	0	0	111.172798	330.333954	-46.731194	0.690124	0	-0.485058	0.000013	-4.309653	0.000012	13.20824478	129.4529807	0	0	-0.2	0	0	0	0	13.20824478	-129.4529807	0	0	-0.2	0	0	0	0
27.008	0	0	0	0.889	0	-0.840175	0	0	0	110.180977	328.655487	-46.349724	0.690306	0	-0.485307	0.000018	-4.843222	0.000014	12.97873787	129.6480891	0	0	-0.2	0	0	0	0	12.97873787	-129.6480891	0	0	-0.2	0	0	0	0
27.009	0	0	0	0.889	0	-0.840175	0	0	0	109.036568	327.73996	-45.815666	0.69	0	-0.4848	0.000006	-5.408753	0.000006	12.7485357	129.8427923	0	0	-0.2	0	0	0	0	12.7485357	-129.8427923	0	0	-0.2	0	0	0	0
27.01	0	0	0	0.889	0	-0.840175	0	0	0	108.197334	325.298553	-44.976433	0.693302	0	-0.486938	0.000011	-6.213024	0.000006	12.51763898	130.0370882	0	0	-0.2	0	0	0	0	12.51763898	-130.0370882	0	0	-0.2	0	0	0	0
27.011	0	0	0	0.889	0	-0.840175	0	0	0	108.197334	323.467499	-44.213493	0.695717	0	-0.485732	0.000013	-6.626766	0.000018	12.28604843	130.230975	0	0	-0.2	0	0	0	0	12.28604843	-130.230975	0	0	-0.2	0	0	0	0
27.012	0	0	0	0.889	0	-0.840175	0	0	0	108.12104	320.873505	-42.99279	0.696396	0	-0.485474	0.000017	-6.405332	0.000021	12.05277111	130.4136991	0	0	-0.2	0	0	0	0	12.05277111	-130.4136991	0	0	-0.2	0	0	0	0
27.013	0	0	0	0.889	0	-0.840175	0	0	0	108.12104	319.195038	-42.229851	0.696233	0	-0.484393	0.000005	-6.460482	0.000022	11.81762588	130.5825647	0	0	-0.2	0	0	0	0	11.81762588	-130.5825647	0	0	-0.2	0	0	0	0
27.014	0	0	0	0.889	0	-0.840175	0	0	0	107.129219	319.195038	-42.153557	0.696233	0	-0.48229	0.00001	-6.479228	0.000022	11.59512164	130.7498335	0	0	-0.2	0	0	0	0	11.59512164	-130.7498335	0	0	-0.2	0	0	0	0
27.015	0	0	0	0.889	0	-0.840175	0	0	0	105.755928	317.974335	-42.763908	0.695067	0	-0.48299	0.000005	-6.858611	0.000001	11.37994383	130.9160384	0	0	-0.2	0	0	0	0	11.37994383	-130.9160384	0	0	-0.2	0	0	0	0
27.016	0	0	0	0.889	0	-0.840175	0	0	0	103.46711	316.753632	-43.75573	0.691194	0	-0.483117	0.000005	-6.406032	0.00001	11.16422187	131.0818898	0	0	-0.2	0	0	0	0	11.16422187	-131.0818898	0	0	-0.2	0	0	0	0
27.017	0	0	0	0.889	0	-0.840175	0	0	0	101.559761	314.159637	-43.908318	0.692239	0	-0.484386	0.000004	-5.217983	0.000005	10.94795636	131.2473866	0	0	-0.2	0	0	0	0	10.94795636	-131.2473866	0	0	-0.2	0	0	0	0
27.018	0	0	0	0.889	0	-0.840175	0	0	0	100.491646	312.023407	-43.221672	0.690719	0	-0.484181	0.000012	-3.939333	0.000002	10.73114787	131.4125272	0	0	-0.2	0	0	0	0	10.73114787	-131.4125272	0	0	-0.2	0	0	0	0
27.019	0	0	0	0.889	0	-0.840175	0	0	0	100.110176	310.192352	-42.153557	0.690073	0	-0.483891	0.000001	-2.23224	0.000008	10.51379699	131.5773104	0	0	-0.2	0	0	0	0	10.51379699	-131.5773104	0	0	-0.2	0	0	0	0
27.02	0	0	0	0.889	0	-0.840175	0	0	0	100.415352	308.971649	-41.619499	0.690429	0	-0.482445	0.00001	-1.184586	0.000006	10.2959043	131.7417346	0	0	-0.2	0	0	0	0	10.2959043	-131.7417346	0	0	-0.2	0	0	0	0
27.021	0	0	0	0.889	0	-0.840175	0	0	0	100.949409	308.20871	-42.000969	0.691742	0	-0.482055	0.000008	-0.596058	0.000019	10.0774704	131.9057986	0	0	-0.2	0	0	0	0	10.0774704	-131.9057986	0	0	-0.2	0	0	0	0
27.022	0	0	0	0.889	0	-0.840175	0	0	0	100.949409	307.293182	-43.145378	0.693009	0	-0.483094	0.000001	-0.403975	0.000013	9.858495887	132.0695008	0	0	-0.2	0	0	0	0	9.858495887	-132.0695008	0	0	-0.2	0	0	0	0
27.023	0	0	0	0.889	0	-0.840175	0	0	0	100.873116	306.835419	-43.75573	0.69086	0	-0.483218	0.000009	-0.599988	0.000008	9.638981351	132.2328401	0	0	-0.2	0	0	0	0	9.638981351	-132.2328401	0	0	-0.2	0	0	0	0
27.024	0	0	0	0.889	0	-0.840175	0	0	0	100.56794	305.462128	-43.450554	0.68957	0	-0.482792	0.000001	-0.310437	0.000013	9.435796459	132.3694597	0	0	-0.2	0	0	0	0	9.435796459	-132.3694597	0	0	-0.2	0	0	0	0
27.025	0	0	0	0.889	0	-0.840175	0	0	0	100.949409	304.851776	-42.458733	0.689749	0	-0.482157	0.00001	0.113891	0.000007	9.242350168	132.5050597	0	0	-0.2	0	0	0	0	9.242350168	-132.5050597	0	0	-0.2	0	0	0	0
27.026	0	0	0	0.889	0	-0.840175	0	0	0	100.796822	304.699188	-40.703972	0.690495	0	-0.480997	0.000014	1.016566	-0.000003	9.048512155	132.6403773	0	0	-0.2	0	0	0	0	9.048512155	-132.6403773	0	0	-0.2	0	0	0	0
27.027	0	0	0	0.889	0	-0.840175	0	0	0	101.101997	304.241425	-38.644035	0.687522	0	-0.478912	0.000003	1.92366	0.000009	8.85428283	132.7754115	0	0	-0.2	0	0	0	0	8.85428283	-132.7754115	0	0	-0.2	0	0	0	0
27.028	0	0	0	0.889	0	-0.840175	0	0	0	101.254585	303.325897	-37.041862	0.685573	0	-0.479552	0.000003	2.504072	0.000008	8.659662607	132.9101615	0	0	-0.2	0	0	0	0	8.659662607	-132.9101615	0	0	-0.2	0	0	0	0
27.029	0	0	0	0.889	0	-0.840175	0	0	0	101.254585	301.952606	-35.897453	0.683031	0	-0.481733	0.000003	2.139837	-0.000002	8.464651903	133.0446264	0	0	-0.2	0	0	0	0	8.464651903	-133.0446264	0	0	-0.2	0	0	0	0
27.03	0	0	0	0.889	0	-0.840175	0	0	0	101.178291	301.189667	-35.05822	0.679087	0	-0.482548	0.000001	1.260572	-0.000011	8.269251134	133.1788054	0	0	-0.2	0	0	0	0	8.269251134	-133.1788054	0	0	-0.2	0	0	0	0
27.031	0	0	0	0.889	0	-0.840175	0	0	0	101.178291	300.579315	-34.371574	0.679248	0	-0.483325	0.000005	0.904318	0.000024	8.073460719	133.3126976	0	0	-0.2	0	0	0	0	8.073460719	-133.3126976	0	0	-0.2	0	0	0	0
27.032	0	0	0	0.889	0	-0.840175	0	0	0	101.254585	301.037079	-33.227165	0.680648	0	-0.481779	0.000002	0.964545	0.000003	7.87728108	133.446302	0	0	-0.2	0	0	0	0	7.87728108	-133.446302	0	0	-0.2	0	0	0	0
27.033	0	0	0	0.889	0	-0.840175	0	0	0	101.407173	300.274139	-31.62499	0.681971	0	-0.481581	0.000008	0.900103	0.000014	7.680712639	133.5796178	0	0	-0.2	0	0	0	0	7.680712639	-133.5796178	0	0	-0.2	0	0	0	0
27.034	0	0	0	0.889	0	-0.840175	0	0	0	101.025703	299.816376	-30.251699	0.678533	0	-0.479873	0.000005	0.887181	0.000008	7.507359809	133.711321	0	0	-0.2	0	0	0	0	7.507359809	-133.711321	0	0	-0.2	0	0	0	0
27.035	0	0	0	0.889	0	-0.840175	0	0	0	100.339058	298.900848	-28.878408	0.678161	0	-0.479913	0.000013	1.002474	0.000008	7.344601312	133.8280833	0	0	-0.2	0	0	0	0	7.344601312	-133.8280833	0	0	-0.2	0	0	0	0
27.036	0	0	0	0.889	0	-0.840175	0	0	0	99.805	297.832733	-27.886587	0.680593	0	-0.481225	0.000005	1.072436	0.000002	7.180956495	133.9333876	0	0	-0.2	0	0	0	0	7.180956495	-133.9333876	0	0	-0.2	0	0	0	0
27.037	0	0	0	0.889	0	-0.840175	0	0	0	99.270943	298.443085	-27.199942	0.680429	0	-0.480854	0.000013	1.016485	0.000007	7.017057718	134.0384918	0	0	-0.2	0	0	0	0	7.017057718	-134.0384918	0	0	-0.2	0	0	0	0
27.038	0	0	0	0.889	0	-0.840175	0	0	0	98.660591	299.053436	-27.276236	0.682305	0	-0.481097	0.000007	0.77874	0.000006	6.852905227	134.1433955	0	0	-0.2	0	0	0	0	6.852905227	-134.1433955	0	0	-0.2	0	0	0	0
27.039	0	0	0	0.889	0	-0.840175	0	0	0	98.431709	299.968964	-27.35253	0.68063	0	-0.480646	0.000005	0.695332	0.000007	6.688499265	134.2480982	0	0	-0.2	0	0	0	0	6.688499265	-134.2480982	0	0	-0.2	0	0	0	0
27.04	0	0	0	0.889	0	-0.840175	0	0	0	98.202827	301.037079	-27.428823	0.676998	0	-0.480968	0.000008	0.35982	-0.000001	6.52384008	134.3525994	0	0	-0.2	0	0	0	0	6.52384008	-134.3525994	0	0	-0.2	0	0	0	0
27.041	0	0	0	0.889	0	-0.840175	0	0	0	97.745064	301.037079	-27.428823	0.676998	0	-0.481171	0.00001	0.621206	-0.000001	6.358927919	134.4568987	0	0	-0.2	0	0	0	0	6.358927919	-134.4568987	0	0	-0.2	0	0	0	0
27.042	0	0	0	0.889	0	-0.840175	0	0	0	96.982124	301.342255	-27.199942	0.675503	0	-0.479874	0.000008	1.223686	0.000004	6.193763028	134.5609955	0	0	-0.2	0	0	0	0	6.193763028	-134.5609955	0	0	-0.2	0	0	0	0
27.043	0	0	0	0.889	0	-0.840175	0	0	0	95.990303	301.494843	-27.581411	0.67678	0	-0.479226	0.000004	2.237838	0.000012	6.028345656	134.6648894	0	0	-0.2	0	0	0	0	6.028345656	-134.6648894	0	0	-0.2	0	0	0	0
27.044	0	0	0	0.889	0	-0.840175	0	0	0	95.074776	302.105194	-28.268057	0.676625	0	-0.479268	0.000005	2.278421	0.000008	5.8743508	134.7680716	0	0	-0.2	0	0	0	0	5.8743508	-134.7680716	0	0	-0.2	0	0	0	0
27.045	0	0	0	0.889	0	-0.840175	0	0	0	95.15107	303.478485	-29.87023	0.673563	0	-0.479512	0.000003	1.685312	-0.000004	5.725382017	134.8708545	0	0	-0.2	0	0	0	0	5.725382017	-134.8708545	0	0	-0.2	0	0	0	0
27.046	0	0	0	0.889	0	-0.840175	0	0	0	96.371773	303.783661	-31.243521	0.671681	0	-0.481241	0.000003	0.33475	0.000005	5.5760688	134.9706031	0	0	-0.2	0	0	0	0	5.5760688	-134.9706031	0	0	-0.2	0	0	0	0
27.047	0	0	0	0.889	0	-0.840175	0	0	0	98.126534	303.020721	-31.930166	0.670955	0	-0.48346	0.000002	-0.716646	0.00001	5.425614042	135.0472282	0	0	-0.2	0	0	0	0	5.425614042	-135.0472282	0	0	-0.2	0	0	0	0
27.048	0	0	0	0.889	0	-0.840175	0	0	0	99.499825	304.088837	-32.311638	0.670204	0	-0.482966	0.000002	-0.611475	0.000017	5.274992435	135.1236855	0	0	-0.2	0	0	0	0	5.274992435	-135.1236855	0	0	-0.2	0	0	0	0
27.049	0	0	0	0.889	0	-0.840175	0	0	0	100.339058	305.156952	-32.15905	0.672259	0	-0.481875	0.000012	0.094018	0.000012	5.124204164	135.1999748	0	0	-0.2	0	0	0	0	5.124204164	-135.1999748	0	0	-0.2	0	0	0	0
